<svg xmlns="http://www.w3.org/2000/svg" xmlns:xlink="http://www.w3.org/1999/xlink" version="1.1" id="katman_1" x="0px" y="0px" width="700px" height="700px" viewBox="0 0 700 700" style="enable-background:new 0 0 700 700;" xml:space="preserve">
<g id="vhAYEo_1_">
	<g>
		<path fill="#85822c" d="M283.3,641.9c-1.5-1.5-3.7-2.2-5.1-5.2c7.4-31.7,15.1-64.2,22.7-96.6c-8.5,10.1-19,11-30.8,8.9c-8.7-1.6-17.4,0-25.8,3 c-2.5,0.9-5,2.4-7.9,1.7c-0.2-0.9-0.6-1.5-0.4-2.1c3.7-16.8,8.7-33,19.9-46.6c2.2-2.6,4.7-5,7.4-7c8-5.8,18.4-3.1,21,6.5    c2,7.5,6,11.8,12.9,14.3c2.8,1,5.1,3.1,7.3,6.4c3.3-13.8,6.4-26.9,9.4-40c0.4-1.8,0.4-3.9-0.1-5.7c-1.6-6.5-1.3-13.1-1.3-19.7    c0-4.5,0.3-8.9-3.8-12.3c-2-1.6-0.9-4.5-2.2-6.9c-15.4-4.8-31.8-8.1-42.3-23.3c-10.7,4.5-22.4,6.2-33.6,9.3    c-6.6,1.8-12.1,6.3-17.5,10.5c-11.2,8.6-23.5,14.4-37.3,17.5c-10.8,2.4-21.2,6.5-32.2,8c0-0.9,0-1.7,0-2.6    c9.8-8.6,18.6-18.2,25.7-29.2c4.6-7,10.1-13.1,18.2-16.5c4.7-2,8.1-6.2,11.7-9.8c6.2-6.2,13.1-11.5,20.9-15.8    c13.8-7.6,29.9-0.3,36.6,8.8c1,1.3,1.6,3.1,4.1,3.1c0.5-5.2,1.2-10.5,2.5-15.6c0.5-2-0.2-3.8-1.5-5.3    c-5.4-6.1-10.6-12.6-18.4-15.5c-6.7-2.5-11.8-6.6-16.4-11.9c-0.8-1-1.8-1.9-2.6-2.8c-9.2-9.9-14.6-11.1-27.1-5.9    c-5.5,2.3-10.6,5.2-14.7,9.9c-4.7,5.3-8.5,4.6-12-1.5c-4.4-7.8-4.1-15.7,0.1-23.2c6.7-12.2,15.9-21.6,30.2-24.6    c-5.7-8.4-11.9-11.1-21-8.9c-4.6,1.1-7.8-1.2-11-3.7c-2.9-2.2-4.7-5.5-6.5-8.3c-4,0.2-5.4,4.3-8.8,5.3c1.1-10.6,6.5-17,15.7-18.7    c4.2-0.8,8.2-2.4,11.7-5.5c6.4,5.2,13.4,4.5,20.8,3.9c9.1-0.7,16.1,4.9,22.7,10.4c5.2,4.3,9.7,9.3,14.6,14.5    c-0.8-18.8,2.4-36.3,14.2-51c-1.1-2.9-3.5-3-5.3-3.8c-3.7-1.7-7.5-3.1-11.2-4.6c-13.8-5.5-18.2-16.8-19.4-31.3    c15.8-2.5,30.6,0.6,45.1,5.9c14.4,5.3,26.1,15.2,38.5,24c0.7-7.3-2.4-14.6-7.7-18.4c-7.2-5-14.2-10.2-21-15.8    c-3.6-3-7.1-6.2-9.6-10.3c-15-24.3-57.5-22.6-69,2c-0.2,0.5-0.9,0.8-1.3,1.3c-2.1-0.9-0.8-2.2-0.4-3.2c1.2-3.2,2.5-6.4,4.1-9.4    c7.5-14.9,21.5-22.4,38.6-20.5c23.5,2.7,42.7,13.9,59,30.6c4.9,5,7.3,11.5,9.3,18.1c1.2,4.1,2.6,8.1,4.3,13.4    c2.3-5.5,3.4-9.9,2.6-14.4c-2.6-14.7-0.3-29.3,0.6-44c1.4-20.9,10.7-38.4,22.6-54.8c2.8-3.8,5.3-7.7,6.9-12.2    c3.5-10.3,10.7-17.8,18.9-24.5c1.8-1.5,3.5-3.1,5.2-4.7c1.7,0,3.4,0,5.1,0c1.1,1.9,1.5,3.9,1.6,6.1c0.9,31.1-1.4,61.7-11,91.7    c-5.5,17.4-17.2,30.2-28.2,43.8c-1.6,2-3.9,3.3-6.4,4.1c-5.9,2-9.1,6.7-10.2,12.2c-1.3,6.2-1.3,12.6-1.9,18.8    c11.4,11,23.4,20.9,30,35.6c4.9-2.5,9.7-0.3,14.6-0.6c-11.8-21.9-11.8-44-3.6-66.3c7.6-20.9,16.7-41.2,30.7-58.7    c4.8-6,10.3-11.3,17.2-15.2c2.1,1,4,1.9,6.5,3c7,23.7,4.1,47.7,0.4,71.9c-3.8,24.8-14.1,46.3-30.7,65.4c2.6,1.5,5.1,2.9,7.8,4.4    c8.2-5.5,14.7-12.6,21.2-19.6c13.8-14.9,26.3-30.9,36.6-48.5c3.4-5.8,5.9-11.7,6.8-18.5c0.9-7.3,4.4-13.8,7-20.5    c10.5-28.1,30.5-48.5,54.1-65.8c1.9-1.4,3.8-2.8,6.3-3.4c1.9,0,3.3,1.3,5.4,2.5c-0.1,21.2-4.7,41.5-17.2,59.1    c-12.1,17.1-26.5,32-48.8,41.5c-8.1,12.6-18.4,27-30.2,40.3c-11.8,13.3-24.6,25.4-37.3,37c-0.8,2.6,1.9,3.8,1.1,5.9    c-11.4,0.4-14.2,3.4-16.7,18.6c10.5,4.2,19.3,11.2,27.1,19.7c5.1-1.3,10.1-2.6,15.4-4c1.3-7.1,3.8-13.8,6-20.3    c-2.8-5-8.7-4.1-13.3-8.6c8.6-1.2,15.6-3.4,23.1-1.8c2.4,0.5,4.2,2.2,5.3,4.4c3.4,6.8,8.1,12.5,13.7,17.5    c4.2,3.8,4.5,9.4,5.1,14.8c1.1,9.7,2.5,19.4,3.8,29.1c2.8,0.4,3.6-1.7,4.8-3c11.3-12.4,24.9-20.6,41.3-24.2c4-0.9,8-1.1,12,0.4    c6.4,2.4,8.5,5.7,8.1,12.6c8.5-0.9,14.7,6.9,12.8,16.3c-2.8,13.9-10,25.2-20.1,35c-1.2,1.1-3,1.7-3.4,3.7c2.1,1.1,4.2,0.6,6.2,0.2    c10.8-2.2,20.7,1.1,30.6,4.4c4,1.3,6.8,4.3,9.1,7.8c3.2,5,8,9.2,10.8,14.2c4,7.3,8.8,14.9,8.4,23.9c-0.2,4.9,0.1,9.7,1.3,15.1    c-4.1-0.9-5.4-3.9-7.5-5.7c-2.5-2.1-5-4.5-8.5-3.4c-5.5,1.6-9.3-0.8-12.1-4.9c-2.6-3.8-6-5.8-10.2-7.1c-5.9-1.9-11.8-3.7-18-4.5    c-4-0.5-8-0.9-12.3,1.4c5.1,5.7,10.1,10.8,14.7,16.4c10.9,13.4,10.7,24.4-0.9,37c-9.2,10.1-28.7,24.9-38.5,28.9    c-3-6.5-3.7-13.2-2.9-20.2c0.9-8.1,3-15.9,5.4-23.6c4.1-13.1-1.7-23.5-14.2-26.7c-0.6-0.1-1.2,0-2.3,0.1    c0.2,7.1-5.1,10.9-9.5,15.1c-12.6,11.6-25.5,22.9-43.3,25.8c-2.9,0.5-5.7,1.5-9,0.7c-0.5-3.8,1.9-6.6,3-9.6    c2.5-6.8,5.6-13.4,1.9-20.9c-1-2.1-0.5-5-0.7-7.6c-2-0.8-2.7,1-3.6,1.9c-3,2.7-6.3,3.6-10.3,4.3c-19.7,3.5-39.9,4-59.2,10    c-1.9,0.6-4.1,0.6-5.9,2.5c2.7,1.7,4.8,0.6,6.7-0.6c16.1-9.9,32.3,0.9,37.6,16.1c3.5,10,4.9,20.3,5.9,30.7    c1.3,14.5,1.3,28.9-1,43.4c-0.6,3.6-1.3,7.2-2.6,10.5c-4.4,11.3-11.5,21.4-14.5,34.3c-12.4-10-24.4-18.6-29.5-33.8    c-5.4-16.2-11.1-32.3-17-48.3c-2.2-6-5-11.7-8.1-18.8c-10.2,44.8-20,88.2-29.9,131.5C285,641.9,284.2,641.9,283.3,641.9z     M415.7,411.9c-1.5-7.1-4.3-13.3-6.7-19.7c-5-13.2-28.3-15.6-35.2-4c-2.4,4-5.3,7.7-7.8,11.7c-4.7,7.6-8.7,15.7-14.4,22.7    c-3.8,4.6-8.3,7.9-14.5,8.4c-4.6,0.4-9.2,1.1-14.2,1.7c-6.3,12.8-3.1,25.7-1.5,38.3c4.3,1.9,7.5,0.2,10.6-1    c7.9-2.9,16.1-4.2,24.3-5.4c15-2.2,30.1-3.3,44.9-6.2c8.5-1.7,13.2-7,16.3-14.6c-1.9-3.8-4.8-6.7-7.3-9.9c-2.9-3.6-3.4-7-0.5-11    C412.1,419.6,413.6,415.8,415.7,411.9z M490.4,522c2-1.1,3.1-1.7,4.1-2.4c6.8-4.4,13.4-9.1,19.7-14.2c5.3-4.3,10.4-8.9,14.4-14.5    c7.3-10.3,7-17.8-0.2-28.1c-12.6-17.9-29.8-28.2-51-32.4c-7.4-1.5-14.8-1.3-22.2-0.1c-4.1,0.7-6.5,2.8-7.1,7.1    c2.8,3.8,6.9,5.7,11,7.1c7,2.4,13.9,5,20.7,7.9c12.5,5.4,18,15.9,14.2,28.9c-1.1,3.9-2.5,7.7-3.4,11.6    C488.4,502.3,487.2,511.8,490.4,522z M271.6,380.8c-6.8-13.9-18.7-21.9-30.6-30c9.3,1.9,17.6,6.8,28.4,7.5c-2.2-4-4.1-6.4-6.3-8.7    c-3.9-3.9-7.8-7.9-11.4-12.1c-12.1-14.3-27.5-23.4-45-29.2c-4.3-1.4-8.9-1.5-13.1,0.7c-12,6.2-20.3,15.6-23.3,28.9    c-1.5,6.4,0.9,12,5.4,16.7c1.3-0.3,2.2-0.4,2.9-0.8c0.9-0.5,1.9-1.1,2.5-1.9c6.1-7.5,14.6-10.7,23.6-13.1c7.9-2.2,13.9,0,19.2,6.3    c6.1,7.3,11.9,15.1,22.1,17.5c2.7,0.7,5.1,3.1,7.3,5.1c4,3.5,8,7.1,11,11.5C265.8,381.5,267.6,383.9,271.6,380.8z M577.1,460.2    c1.9-7.8,2.3-14.6-2.5-20.8c-1.3-1.7-1.8-3.9-1.9-6c-0.1-1.8-0.9-3.3-2.2-4.5c-4.4-4.1-7.6-9.2-10.9-14.1    c-1.9-2.9-4.3-5.3-7.6-6.6c-20.9-8-41.8-4.8-63.5,5.3c7.3-1.9,15.3-1.5,21.9-6.3c2.3-1.7,4.8-1.7,6.5,2c-2,5.4-5.8,9.4-11.8,11.1    c-5.6,1.6-11.3,1.8-17.1,0.5c-8-1.8-14.9,1.3-21.6,4.9c6.2,1.2,12.3,2,18.3,3.8c6.2,1.8,12.2,4,17.8,7.1c3.7,2,7.5,2.9,11.7,2.5    c10.6-0.8,20.8,0.6,30.7,4.4c4.3,1.6,8.2,3.4,10.7,7.5c1.7,2.8,4.5,5.4,7.9,4.4C569,453.8,572.8,456.5,577.1,460.2z M283.6,360.1    c-0.9-17.3,2.7-22.3,19.3-26.5c3.6-0.9,6.7-2.4,9.6-4.7c7-5.7,14.8-10,23.3-13.2c11.1-4.2,22.3-7,33.9-6.1c3.2-3,4-6.7,5.1-10.1    c2-6,4.9-10.8,12.2-10.7c-3.1-6.9-7.9-9.5-14.6-7.9c-6.5,1.5-12.7,0.4-18.9-1.6c-2.8-0.9-5.3-1-8.1,0.2    c-27,11.4-47.7,29.5-60.5,56.2c-3.7,7.7-6.1,15.8-7.5,23.9C279.6,361.2,281.4,361.3,283.6,360.1z M472.3,452.1    c-2.2-2.4-4.7-2.4-6.9-3c-11.5-2.9-20.4-9-26.6-19.5c-4-6.7-8.8-13-13.2-19.4c-7,1.5-9.7,6.4-12.4,11.7c-3.5,6.8-4,7.5,1.1,12.9    c5.9,6.2,7.4,13.3,6,21.3c-0.7,3.7-0.7,7.4,0.7,10.7c2.2,5.4,1,10.4-0.6,15.6c-1.2,3.7-3.6,7-4.2,11.5c8-1.2,15-2.8,21.5-6.2    c11-5.6,19.7-14.1,28.8-22.2C470.7,461.9,472.5,457.6,472.3,452.1z M451,399.7c0.7-1.5,1.2-2.4,1.6-3.4c5-14.4,6.1-29.1,4.3-44.1    c-1-8.4-3.3-16.7-3.4-25.3c-0.1-4-1.9-7.4-5-10c-5-4.2-9.1-9-11.7-15c-1-2.2-2.2-4.4-4.9-4.5c-4.5-0.2-9,0-13.4,0    c2.7,3,6.4,4,7.1,8.4c-0.5,1.4-1.3,3.2-1.9,4.9c-2.5,7-5.4,13.9-1.4,21.5c1.1,2.1,0.6,4.6,0,6.9c-1.4,5.1-2.6,10.3-3.8,15.2    c0.8,2.7,2.9,4,4.4,5.7c8.1,8.8,15.7,18,20.1,29.3C444.4,393.6,446.9,396.8,451,399.7z M294.5,422.3c10-6.8,13.7-16.1,15.4-26.4    c0.9-5.5,0.4-11.4,2.5-16.3c2.9-6.9,0.4-12.6-1-19.9c-18,7.4-35.7,4-53.4-0.3c2.2,3.1,4.4,5.6,6.8,8c7.1,6.9,11.9,15.3,13.2,25    c0.8,5.9,2.9,10.6,6.8,14.8C288.6,411.5,292.2,416,294.5,422.3z M270.5,415.2c10.2,13.1,25.4,14.7,39.9,18.3    c4.4-5.1,7.8-10.5,9.9-16.6c6.7-20.5,12.7-41.1,18.3-62c0.5-1.8,1.5-3.6-0.4-5.9c-7.1,2.9-14,6.7-20.5,11c-1.8,1.2-2.8,3.2-2.1,5    c2.9,7.2-1.1,13.8-1.8,20.6c-0.8,8.1-1.8,16.2-5.2,23.6c-3.2,7-7.8,12.8-16,16.7c-1.6-8.7-6.9-14.1-11.8-19.7    c-3.3-3.9-4.9-8.4-5.3-13.5c-0.2-2.9-0.2-5.9-3.1-7.8c-3.7,5.8-4.9,13.1-3.6,21.1c1.1,1.7,4,1.7,4.3,4.1    C273,412.1,270.8,412.7,270.5,415.2z M402.2,148c-0.7,0.4-1.2,0.5-1.3,0.8c-11.1,24.3-21.3,48.9-27.6,75    c-3.4,14.1-6.9,28.2-7.8,42.7c-0.2,3.1-0.6,6.4,1.9,8.8c2.8-0.1,4.2-1.9,5.3-3.7c9.8-15.5,17.1-32,20.4-50.1    c2.5-13.6,4.3-27.4,6-41.1C400.4,169.8,402.7,159.1,402.2,148z M445.2,435.2c5.5-7.6,8.4-15.1,9-23.6c0.2-2.6-0.9-5-2.7-7    c-11.6-12.7-24.4-23.8-40.5-30.6c-14.9-6.3-29.6-6.2-44.5,1.2c2.4,3.4,5.7,3.9,9.1,3.8c5.8,0,11.5-0.2,17.3-0.2    c6.5,0,11.5,2.9,15.3,7.9c3.4,4.5,5.5,9.6,7.3,14.8c0.9,2.8,1.1,5.9,3.2,8.2c2.8,0.2,4.5-2.6,8-2.1    C432.6,416.4,438.7,425.5,445.2,435.2z M438.8,387.6c-5.3-12.8-14-22.9-24.2-31.8c-8.8-7.6-19-11.3-30.7-9.6    c-2.5,0.4-5,0.8-7.6,1.2c-9.5,1.4-22.6,13.5-24.4,22.8c-0.5,2.4-1,5,0.3,7.4C384.9,363.8,402.8,360.7,438.8,387.6z M274.8,325.4    c4-27.3,11.5-54.3,7.5-82.3c6.7,18.5,1.2,37,0.2,55.5c1.3-3.9,2.1-7.9,3.6-11.6c1.4-3.6-1.8-8.4,2.9-10.9c1.6-0.1,2.6,0.7,3.4,1.7    c3,3.9,3.2,8.3,1.8,12.8c-2.9,9.5-5.2,19.2-11.8,27.3c-5.2,6.4-8.4,27.4-7.3,38c4.2-15.1,10.2-29.8,20.5-42c4.5-5.3,6-11,6.6-17.5    c0.2-2.3,0.4-4.7,0.6-7c0.9-14.5-1.3-28.5-8.6-41.3c-1.8-3.2-4.1-6.1-7.6-7.5c-3.1-1.3-6.3-1.6-9.1,0.8c-2.6,2.3-4.6,4.8-3.5,8.9    c1.9,6.9,1.4,14.4,5.3,20.9c1.8,3,1.4,6.5,0.7,10c-0.9,4.3-3.8,7.9-4.1,12.1C275.6,303.8,275.6,314.6,274.8,325.4z M378.5,343.4    c-9.1-8.5-19.6-11.9-31.1-12.7c-16.6-1.2-32.7,1.9-48.6,6.5c-11.3,3.3-15.4,11.9-11.2,23.6c6,0.9,12.1,0,18-1.8    c2.2-0.7,4.4-2.1,6.8-1.2c2.6,0.9,4.5-0.3,6.6-1.4c8.4-4.5,16.6-9.6,25.4-13.5c6.4-2.8,12.4-2.6,18.5,0.5c2.1,1.1,4.1,2.2,6.1,3.2    C372.1,345.9,375.1,345.7,378.5,343.4z M158.9,281.1c16.1-7.1,30.8-2.6,41.5,4.2c9.3,5.9,17.6,13.1,23.9,21.9    c7.8,11,19.5,17.5,28.2,27.4c1.5-1.8,0.4-2.9,0-4c-3-7.5-6.5-14.9-9.1-22.5c-4.1-11.7-11.6-20.8-21-28.5    c-6.6-5.4-13.8-10.4-23.1-9.1c-6.5,1-12.6,0.5-18.1-3.2c-4.1,2.7-8.1,4.3-12.8,4.7C163.4,272.5,160.2,275.4,158.9,281.1z     M358.9,79.1c-1.4,1.5-2.3,2.3-3,3.3c-1.2,1.7-2.4,3.5-3.5,5.3c-18.4,30.1-29.4,63.3-39.5,96.8c-1.7,5.6-1.5,11.4-1.1,17.1    c0.2,2.8,0.8,5.5,4.3,6.5c3.8-1.4,3.6-5,3.8-8c0.4-4.1,1.1-8,2.9-11.7c2.6-5.4,4.5-11,6.5-16.7c8-22.7,15.9-45.5,24.2-68.1    C356.4,96,359.8,88.4,358.9,79.1z M403.7,345.8c-2.2-6.1-2.7-11.8-5.7-15.4c-10-12-22.3-20.7-39.1-18.5    c-12.1,1.6-23.6,5.6-34.3,11.6c-3.1,1.7-6.2,3.5-9.6,6.8c12.7-1.2,24.1-3.5,35.9-1.8c12.2,1.8,22.9,6.3,31.5,15.2    C389.2,342.8,395.8,343,403.7,345.8z M463.4,397.5c5.1-4.5,10.1-9,15.2-13.4c4.3-3.6,8-7.5,10.5-12.7c2.5-5.2,6.6-9.1,12.4-10.3    c7-1.3,12.3-5.7,18.3-8.9c4.2-2.2,4.4-6.1,3.9-10c-0.4-4-3.6-5.7-7.1-6.3c-4.2-0.7-8.5-0.5-12.7,0.6c-17,4.3-30.3,14.3-41.7,27.2    c-1.2,1.3-1.9,2.8-2,4.6c-0.6,11.5-2.8,22.7-7.4,34.4c5.9-6.2,7.9-10.6,9.8-17.2c3.4-11.8,9.1-22.1,20.7-27.9    c2.3-1.1,4.6-2.7,7.3,0.8c-3,5.5-10.1,8.5-11.4,16c3.2-3.2,6.1-6,8.9-8.9c7.8-8,15.6-15.8,25.2-21.6c2.2-1.3,4.5-3,8-1.9    C496.7,355.5,480.8,377.2,463.4,397.5z M201.7,175.9c2.6-1.4,5.2-2.9,7.9-4.1c17.5-7.9,41-3.9,51.5,10.4    c8.1,11,18.2,19.2,29.2,26.4c7.6,5,11.8,11.4,13.6,19.9c0.2,0.8-0.4,2.2,1.4,2.4c1.1-3,1-5.9,0-8.8c-2-5.9-3.9-11.7-5.7-17.7    c-2.3-7.5-6.5-13.8-12.2-19.2c-9-8.5-19.7-14.1-30.8-19.2c-13.5-6.2-27.4-7.4-41.7-2.9C208.3,165.2,203.8,169.3,201.7,175.9z     M401,142.8c-3.6,2.3-5.1,4.4-6.6,6.4c-15.9,22.4-27.8,46.9-38.5,72.1c-2.1,4.9-2.1,10-1.6,15.1c0.6,6.2,0.8,12.3,1.2,18.5    c0.3,4.9,1.4,9.7,2.8,14.4c0.8,2.4,1.4,5.3,5.8,6.3c-1.7-4.3-1.8-8.1-1.2-11.9c3.3-22.4,8.2-44.4,15.6-65.9    C384.7,179.5,392.2,161.7,401,142.8z M531.3,353.4c-2.1,11.7-10.6,19.1-18.8,26.4c-8.5,7.6-18.2,13.5-27,21    c12.6-5.3,24.2-12.5,35.9-18.9c1.9,1.4,2,3.1,0.9,4.2c-6.8,7.8-14.1,15.6-25,16.2c-11.1,0.6-20.8,3.9-29.8,10.1    c-3,2-6.4,3.6-9,7.3c1.5-0.1,2.2-0.1,2.7-0.2c15-5,29.7-10.7,44.8-15.2c1.6-0.5,3.1-1.5,4.4-2.5c8.9-6.5,16.1-14.6,21.1-24.5    c2.8-5.5,5.1-11.3,5.2-17.6c0-4.2-1-8.6-5-10.3c-4.2-1.8-6.4,2.4-8.6,5.2c-13.3,17.1-29.1,31.7-46,45.2c-1.5,1.2-3.5,2.1-4.6,5.2    c14.9-9.4,28.8-18.1,41.1-29.1C520.9,369.3,527.5,362.4,531.3,353.4z M265.1,323.9c-0.3-4.9-1.1-9.8-1-14.6    c0.5-21.1,1.5-42.1,6.6-62.7c0.6-2.5,1.2-5-0.8-7.2c-6.5-1.8-10.6-1-14,3c-5.7,7-10,14.7-11.9,23.7c1.7,1.2,3.3,2.1,4,4.1    c2.8,8.1,5.5,16.2,5.7,24.8c0.2,5.2,2,9.3,5.6,14.5c-1.3-14.2-2.6-27-2.1-39.9c0.3-7.5,1.4-14.8,4-21.9c1-2.8,2.2-5.7,5.6-7    c-7.7,12.9-6.8,27-6.7,41C260.3,296,262.1,310.1,265.1,323.9z M474.7,191c31.8-21.5,48.5-51,45.3-79.4c-3.2,3.9-6,7.9-8.2,12.3    c-5.1,10.3-10.1,20.7-15.5,30.9C489.7,167.1,483.2,179.6,474.7,191z M371.9,592c3.4-7.9,6.6-15.7,8.8-24    c1.8-6.9,3.1-13.8,2.1-20.9c-1.4-9.9-1-20-2.2-29.9c-1.5-12.6-6-23.9-13.7-33.9c-1.6-2.1-3.5-4-7.4-5    c8.1,10.8,10.4,22.3,11.6,34.3c0.5,4.9,0.4,9.8,1.2,14.6c2.6,15.9,3.2,31.8,1.1,47.7C372.7,580.6,372.4,586.3,371.9,592z     M339.7,480.8c-3.7,0.8-3.6,2.9-3.7,4.8c-0.4,6.8-0.6,13.7,0.4,20.5c4.2,27.3,11.5,53.8,22.1,79.3c0.5,1.2,0.8,2.6,2.9,3.8    C350.6,553.3,352.1,515.8,339.7,480.8z M344.8,480.3c-1.7,2.1-0.8,3.9-0.4,5.7c5.5,23.2,9.7,46.7,12.3,70.4    c1.4,12.7,4.9,24.9,9.4,37c-0.2-8.9-0.8-17.7-1.5-26.4c-1.3-15.5-4.6-30.7-4.8-46.4c-0.1-10.2-1.6-20.5-6.4-29.8    C351.2,486.8,349.3,482.4,344.8,480.3z M368.8,588.3c1.8-4,1.8-8,2.1-12c0.8-11.2,2.8-22.3,1-33.7c-1.6-9.8-2.7-19.8-3.2-29.8    c-0.4-7.6-1.8-15.2-4.7-22.4c-1.4-3.4-2.9-6.8-5.6-9.2c-2.6-2.4-5.5-5.3-10.6-3c8.2,9.3,12.7,19.9,13.5,31.5    c1.3,18.7,3.4,37.3,5.6,55.9C367.7,573.2,368.1,580.8,368.8,588.3z M405.6,151c-2.1,16-4.4,31.9-6.7,47.8    c-2.7,18.4-4.9,36.8-13.3,53.8c-1.9,4-3.7,8-5.8,12.4c2.5-0.5,3.1-2.2,3.9-3.6c4.9-7.8,9.8-15.5,14.6-23.4    c3.7-6.1,5.5-12.9,6.4-20C407.5,195.8,405.9,173.4,405.6,151z M517.3,109.3c-4.7,0.9-7.9,3.5-10.8,6.6    c-21.6,22.6-38.9,48.1-50.8,77.1c-0.8,2-2.2,4.1-0.3,6.9C472.7,167.5,495,138.5,517.3,109.3z M332,476.1c-4.3-1.5-7.4-0.1-9.1,3.2    c-5.6,11-8.5,22.3-3.1,34.3c4.8,10.5,8.9,21.2,12.6,32.1c4,11.9,7.5,24,12.6,35.5c2,4.6,4.2,9,8.5,11.9    c-2.2-6.5-5.8-12.2-8.1-18.6c-7.4-20-12.4-40.8-18.2-61.2C323.6,500.8,323.2,487.7,332,476.1z M165.7,281.7    c2.3,7.3,7.8,12.5,12.8,11c10.6-3.2,17.7,1.8,24.2,8.7c6.2,6.6,15.1,7.1,22.4,11.3c-1.2-2.4-2.5-4.3-4-6    c-8.6-9.9-18.1-18.7-30.5-23.6C182.7,280,174.6,277.5,165.7,281.7z M270.8,410.7c-5.9-4.1-11.1-4.9-17.2-3.2    c-6.9,1.9-12.7,5.9-19,9c-19.3,9.3-36.5,22-55.3,34.3c10.3-2.7,19-5.8,26.5-11.7c3.2-2.5,6.7-4.6,10-6.9c7.9-5.7,16.4-9.5,26.2-11    C251.9,419.7,261.3,416.3,270.8,410.7z M322.5,201.8c19.9-36.3,29.5-76.3,41.8-115.4C347.4,123.8,335.6,163,322.5,201.8z     M363.3,101c-10.9,32.6-20.1,65.7-34.2,97C347.8,182.3,359.8,134.9,363.3,101z M334.3,478.1c-3.5,3.8-5,7.6-5.9,11.8    c-1.4,7-1,14.1,0.8,20.9c5.6,20.8,11,41.6,18.2,62c3,8.6,7.1,16.7,12.8,24.2c0.8-1.3,0-2-0.3-2.7c-7-15.4-12.9-31.2-17.1-47.5    C337.1,524.6,330.4,502.4,334.3,478.1z M368.6,88.2c-3.5,20.5-6.3,41.2-12,61.3c-6.2,21.6-14.5,41.9-31.8,57.3    c-0.2,0.2,0,0.7,0,1.1c0.4,0,0.9,0.2,1.2,0c0.8-0.4,1.6-0.8,2.1-1.4c10.6-11.4,21.1-22.9,26.9-37.7c2.3-5.7,3.8-11.7,5.5-17.7    C366.6,130.7,367.8,109.5,368.6,88.2z M263.4,347.1c0.6-0.2,1.2-0.3,1.7-0.5c-1.4-8.5-2.6-17.1-4.4-25.6c-1.5-6.7-4.2-13-9.3-17.9    c-4.9-4.6-7.7-10-8.4-16.7c-0.1-1.1,0-2.6-1.2-3.2c-0.5,11.6,2.2,22.6,7.4,33.1C254.2,326.4,255.5,338.3,263.4,347.1z M342.8,99.2    c-20.3,20.5-33.3,54.1-30.4,77.5C321.6,150.5,328.8,123.6,342.8,99.2z M249.1,394.2c-1.3-1.2-1.5-1.6-1.9-1.8    c-7.6-3.8-14.1-1-20.2,3.5c-9.7,7.3-19.3,14.9-30,20.7c-13.1,7-21,19.4-31.3,29.3c3-0.9,5.1-3,7.4-4.8    c6.2-4.9,11.2-11.2,17.8-15.5c11.6-7.6,23.1-15.3,34.9-22.6C232.7,398.8,239.3,393.7,249.1,394.2z M166,452.7    c11.4-4.2,21.8-9.9,31.8-17c18.7-13.4,38.7-24.4,60.4-32.5c-6.5-2-12.6-0.3-18.6,2.5C213.1,418.3,190.9,437.7,166,452.7z     M233.9,388.5c-5.9-0.9-10.6,1.2-15.1,3.6c-6.6,3.6-12.3,8.4-17.6,13.7c-3.6,3.6-6.8,8-11.6,10c-12.7,5.3-18.4,16.9-25.6,27.2    c3.5-2.8,6.7-5.8,9.7-9c4.8-5.1,8.8-11.1,15-14.7C204.4,410.1,218.7,399,233.9,388.5z M306.4,253.5c-6.7-13.6-48.8-46.7-74.7-46.6    c14.4,6.2,28,11.6,40,20C283.6,235.3,295.4,243.9,306.4,253.5z M350.1,343.8c-5,10.7-7.5,22.3-11.3,34.6    c11.1-9.3,17-21.2,26.1-30.6C360.2,344.1,355.9,342.7,350.1,343.8z M176.2,442.3c6.6-3.4,12.8-7.3,18.9-11.6    c18-13,36-26.2,58-32.1c-7.5-2.8-8.3-2.9-14.6,0c-4.5,2.1-8.7,4.5-12.8,7.2c-9,6-17.9,12.4-27.4,17.7    C189.7,428.4,183,435.4,176.2,442.3z M365.9,477c-0.6,1.4,0.2,1.9,0.7,2.5c9.6,10.7,14.7,23.4,16.7,37.4c0.7,5.1,0.4,10.2,1,15.3    c1.8,15.8,2.2,31.5-4.2,46.6c-0.6,1.4-1.8,2.9-0.8,5.2c2.6-4.6,4.1-9.2,5.1-14c3.8-18.2,3-36.5,0.6-54.7    c-1.2-9.5-2.5-19.1-7.3-27.7C375,482.8,371.7,478.5,365.9,477z M291.7,520c-5.9,15-19.1,20-33.2,23.8c9.4-1.1,18.8-1.5,27.7-4.5    c6.6-2.2,10.3-7,10.7-13.6C297.2,522.6,296.4,520.2,291.7,520z M327.4,426.8c19.4-10.2,27.3-30.8,43.1-46.2    C364,381.3,350,396.6,327.4,426.8z M246.9,206.9c23,6,38.6,23.6,57.5,36.8c1.2-4.3-0.7-6.2-3-7.9c-9.4-7-18.5-14.4-28.7-20.2    C264.7,211.1,256.2,207.9,246.9,206.9z M500.1,141.4c-13.3,18.6-25.2,38.4-38.8,56.9C481.3,184.2,488.8,161.5,500.1,141.4z     M305.7,276.8c-0.8,9.2,0.4,17.2-1.9,25.1c0.4,0.2,0.9,0.3,1.3,0.5c5.7-4.7,11.5-9.3,17.6-14.3    C316.9,284.2,311.8,280.9,305.7,276.8z M284,513.4c-5.9,2-28.8,20.7-32.1,26.3c5.3-3,10.6-5.7,16.1-7.9c6.8-2.6,12-7.3,15.7-13.5    C284.8,516.9,286.3,515.2,284,513.4z M283.5,508.8c-5.3-2.2-9-1.2-12.3,1.4c-9.4,7.6-15.7,17.7-22.5,27.4    C259.6,527.5,271.7,519,283.5,508.8z M223.8,208.2c9.3,12.1,36.3,27.5,45.7,26.4C253.8,225.6,238.8,216.9,223.8,208.2z     M339.7,278.2c-5-12.7-14.2-21.8-24.3-30.5c-1.6,2.4-1.4,4.3-0.4,5.5C322.9,261.9,331.8,269.5,339.7,278.2z M281.7,503.6    c-4.4-4.1-8-2.3-11.5-0.4c-8,4.4-20.5,21.4-22.7,30.7C257.8,522.8,263.7,507,281.7,503.6z M387,153.8    c-14.1,16.7-22.2,36.6-30,56.6C366.8,191.5,376.7,172.6,387,153.8z M346.9,382.7c-9.4,9.3-16.5,19.7-18.6,33.1    c6.6-10.7,13.8-20.9,21.8-30.1C349.6,384,348.9,383.2,346.9,382.7z M332.3,416.3c10.7-12.7,21.3-25.3,32-38    C349.4,387.5,340,401.2,332.3,416.3z M373.6,382.3c-14.7,11.6-21.9,29.8-36.1,41.8C343.4,421,372.1,387.7,373.6,382.3z M269,546.2    c9.6,0.4,20,3.5,27.4-6.3c4.8-6.3,5.7-10.1,3.3-15.3C296.5,539.3,296.2,539.5,269,546.2z M278.4,236.9    c-9.5-10.5-31.3-22.5-40.4-23.2C252.1,221.8,265.3,229.4,278.4,236.9z M255.6,540.8c19.9-2.9,33.4-12.6,32.2-23.7    C281.2,530.8,267.3,534.3,255.6,540.8z M245.6,530.2c7.6-13.5,15.1-25.4,29.3-32.3C263.3,496.9,248.4,513.5,245.6,530.2z     M488.6,132.4c-16,12.1-22.7,30.1-30.1,47.5C466.7,162.9,476.9,147.2,488.6,132.4z M271.2,348.2c-0.1-16.2,2.7-32.5,0.9-48.8    C267.2,315.6,271.8,331.9,271.2,348.2z M366.6,66.8c-8.1,7-16.9,12.2-20.8,22.3c6.6-6.3,12.1-13.7,19.9-18.8    c-1.4,4.4-4.4,8.2-3.3,13C364,78.2,369.5,74.1,366.6,66.8z M484,384.1c-0.3-0.3-0.7-0.5-1-0.8c-8.7,7.8-17.4,15.6-26,23.3    c0.4,0.4,0.7,0.8,1.1,1.2C467.4,400.6,477.4,394.2,484,384.1z M317.7,260.6c3.6,8.9,11.5,13.9,18.1,20.2    C331.6,272.4,324.6,266.6,317.7,260.6z M517.4,357.3c-4.1,1.6-20.5,19.1-22.7,24.2C503.5,373.9,510.7,365.9,517.4,357.3z     M225.6,215.6c5.8,7.5,27,20.1,35.4,20.7C248.1,229.5,235.6,224.8,225.6,215.6z M224.2,219.5c5.8,10.3,16.5,12.8,26.3,16.7    C241.8,230.5,231.9,226.7,224.2,219.5z M337.9,428.3c10.9-2.9,15.3-11.9,20.1-20.5C351,414.5,346.4,423.3,337.9,428.3z     M347.8,374.5c-5.8,4.4-11.8,8.7-12.1,17C338.7,385.1,346.9,382.3,347.8,374.5z M268.1,286c5.7-7.4-0.9-17,5.2-24.2    c-0.3-2.3-0.5-4.8-0.8-7.2C269.9,264.9,267.7,275.2,268.1,286z M320.5,282.9c-3.4-6-10-10.6-16.3-11    C309.7,276.9,314.9,280.1,320.5,282.9z M409.2,188.1c0.1,0,0.3,0,0.4,0c0-9.7,0-19.4,0-29.1c-0.1,0-0.3,0-0.4,0    C409.2,168.7,409.2,178.4,409.2,188.1z M405.2,339.8c4.9-2.1,9.6-4.5,13.4-8.3C413.7,333.6,408.4,335.1,405.2,339.8z M453.3,425.8    c0.3,0.5,0.5,1,0.8,1.6c5.1-2.4,10.3-4.9,15.4-7.3C463.9,421.5,458,422.2,453.3,425.8z M402.6,335.5c5.5-1.7,6.8-2.4,10.5-5.7    C405.4,330.6,405.1,330.7,402.6,335.5z M352,250.8c0-7.1,0-14.2,0-21.3C351.2,236.6,351.1,243.8,352,250.8z M473.6,195.5    c-3.8,2.4-7.5,4.7-11.3,7.1C467,201.6,470.7,199.1,473.6,195.5z M418,343.7c-2.3,2.1-5.9,3.1-6.4,7.8    C415.7,349.8,417.3,347.1,418,343.7z"/>
	</g>
</g>
</svg>